<svg xmlns="http://www.w3.org/2000/svg" viewBox="0 0 1200 320" width="1200" height="320" role="img" aria-label="voice">
  <defs>
    <linearGradient id="bg" x1="0" y1="0" x2="1" y2="1">
      <stop offset="0" stop-color="#0a0e1a"/>
      <stop offset="1" stop-color="#161d33"/>
    </linearGradient>
    <radialGradient id="glow" cx="0.5" cy="0.5" r="0.75">
      <stop offset="0" stop-color="#8b5cf6" stop-opacity="0.32"/>
      <stop offset="0.55" stop-color="#2dd4bf" stop-opacity="0.10"/>
      <stop offset="1" stop-color="#8b5cf6" stop-opacity="0"/>
    </radialGradient>
    <linearGradient id="word" x1="0" y1="0" x2="1" y2="0">
      <stop offset="0" stop-color="#2dd4bf"/>
      <stop offset="0.5" stop-color="#8b5cf6"/>
      <stop offset="1" stop-color="#f472b6"/>
    </linearGradient>
    <linearGradient id="wave" x1="0" y1="0" x2="1" y2="0">
      <stop offset="0" stop-color="#2dd4bf"/>
      <stop offset="0.5" stop-color="#8b5cf6"/>
      <stop offset="1" stop-color="#f472b6"/>
    </linearGradient>
  </defs>

  <rect width="1200" height="320" fill="url(#bg)"/>
  <rect width="1200" height="320" fill="url(#glow)"/>

  <g fill="none" stroke="url(#wave)" stroke-linecap="round">
    <path d="M0,58 C150,36 300,80 450,58 S750,36 900,58 S1150,36 1200,58" stroke-width="2" opacity="0.18"/>
    <path d="M0,96 C150,70 300,122 450,96 S750,70 900,96 S1150,70 1200,96" stroke-width="2.5" opacity="0.30"/>
    <path d="M0,238 C150,212 300,264 450,238 S750,212 900,238 S1150,212 1200,238" stroke-width="2.5" opacity="0.30"/>
    <path d="M0,276 C150,254 300,298 450,276 S750,254 900,276 S1150,254 1200,276" stroke-width="2" opacity="0.18"/>
  </g>

  <text x="600" y="214" text-anchor="middle" font-family="'Segoe UI',Helvetica,system-ui,-apple-system,sans-serif" font-size="150" font-weight="800" letter-spacing="-5" fill="url(#word)">voice</text>
</svg>
